<svg width="17" height="17" viewBox="0 0 17 17" fill="none" xmlns="http://www.w3.org/2000/svg">
<path d="M14.0976 7.16663V7.83329H13.431V8.49996H12.7643V9.16663H12.0976V9.83329H11.431V10.5H10.7643V11.1666H10.0976V11.8333H9.43096V12.5H8.76429V13.1666H8.09763V13.8333H7.43096V14.5H6.76429V15.1666H6.09763V15.8333H5.43096V14.5H6.09763V12.5H6.76429V9.83329H2.09763V9.16663H2.76429V8.49996H3.43096V7.83329H4.09763V7.16663H4.76429V6.49996H5.43096V5.83329H6.09763V5.16663H6.76429V4.49996H7.43096V3.83329H8.09763V3.16663H8.76429V2.49996H9.43096V1.83329H10.0976V1.16663H10.7643V2.49996H10.0976V4.49996H9.43096V7.16663H14.0976Z" fill="black"/>
</svg>
