<svg width="24" height="25" viewBox="0 0 24 25" fill="none" xmlns="http://www.w3.org/2000/svg">
<path d="M22 9.5V7.5H21V5.5H20V4.5H19V3.5H17V2.5H15V1.5H9V2.5H7V3.5H5V4.5H4V5.5H3V7.5H2V9.5H1V15.5H2V17.5H3V19.5H4V20.5H5V21.5H7V22.5H9V23.5H15V22.5H17V21.5H19V20.5H20V19.5H21V17.5H22V15.5H23V9.5H22ZM14 16.5V15.5H13V14.5H11V15.5H10V16.5H9V17.5H8V16.5H7V15.5H8V14.5H9V13.5H10V11.5H9V10.5H8V9.5H7V8.5H8V7.5H9V8.5H10V9.5H11V10.5H13V9.5H14V8.5H15V7.5H16V8.5H17V9.5H16V10.5H15V11.5H14V13.5H15V14.5H16V15.5H17V16.5H16V17.5H15V16.5H14Z" fill="#40485E"/>
</svg>
