<svg width="100" height="100" viewBox="0 0 100 100" fill="none" xmlns="http://www.w3.org/2000/svg">
<path d="M91.6666 83.3334V75H87.5V66.6667H83.3333V58.3334H79.1666V50H75V41.6667H70.8333V33.3334H66.6666V25H62.5V16.6667H58.3333V8.33335H54.1666V4.16669H45.8333V8.33335H41.6666V16.6667H37.5V25H33.3333V33.3334H29.1666V41.6667H25V50H20.8333V58.3334H16.6666V66.6667H12.5V75H8.33329V83.3334H4.16663V91.6667H8.33329V95.8334H91.6666V91.6667H95.8333V83.3334H91.6666ZM41.6666 45.8334H58.3333V58.3334H54.1666V70.8334H45.8333V58.3334H41.6666V45.8334ZM45.8333 75H54.1666V83.3334H45.8333V75Z" fill="white"/>
</svg>
