<svg width="70" height="69" viewBox="0 0 70 69" fill="none" xmlns="http://www.w3.org/2000/svg">
<g clip-path="url(#clip0_2162_20630)">
<path d="M65.826 4.1143H4.17383V64.8857H65.826V4.1143Z" fill="#BD2020"/>
<path d="M61.6523 0H12.522V4.1143H61.6523V0Z" fill="#1D1D1F"/>
<path d="M61.6523 4.1143H12.522V8.2286H61.6523V4.1143Z" fill="#EB4040"/>
<path d="M12.5216 0H8.34766V4.1143H12.5216V0Z" fill="#1D1D1F"/>
<path d="M12.5216 4.1143H8.34766V8.2286H12.5216V4.1143Z" fill="#1D1D1F"/>
<path d="M8.34775 4.1143H4.17383V8.2286H8.34775V4.1143Z" fill="#1D1D1F"/>
<path d="M12.5216 8.22859H8.34766V12.3429H12.5216V8.22859Z" fill="#EB4040"/>
<path d="M8.34775 8.22859H4.17383V12.3429H8.34775V8.22859Z" fill="#1D1D1F"/>
<path d="M4.17393 8.22859H0V12.3429H4.17393V8.22859Z" fill="#1D1D1F"/>
<path d="M61.6523 64.8857H12.522V69H61.6523V64.8857Z" fill="#1D1D1F"/>
<path d="M61.6523 60.7714H12.522V64.8857H61.6523V60.7714Z" fill="#9B0B0B"/>
<path d="M12.5216 64.8857H8.34766V69H12.5216V64.8857Z" fill="#1D1D1F"/>
<path d="M12.5216 60.7714H8.34766V64.8857H12.5216V60.7714Z" fill="#1D1D1F"/>
<path d="M8.34775 60.7714H4.17383V64.8857H8.34775V60.7714Z" fill="#1D1D1F"/>
<path d="M8.34775 56.6571H4.17383V60.7714H8.34775V56.6571Z" fill="#1D1D1F"/>
<path d="M4.17393 56.6571H0V60.7714H4.17393V56.6571Z" fill="#1D1D1F"/>
<path d="M4.17393 11.7729H0V61.2067H4.17393V11.7729Z" fill="#1D1D1F"/>
<path d="M8.34775 11.7729H4.17383V61.2067H8.34775V11.7729Z" fill="#EB4040"/>
<path d="M57.4784 8.22859H61.6523V4.11429L57.4784 4.11429V8.22859Z" fill="#1D1D1F"/>
<path d="M61.6625 8.22859H65.8364V4.11429L61.6625 4.11429V8.22859Z" fill="#1D1D1F"/>
<path d="M61.6625 12.3429H65.8364V8.2286H61.6625V12.3429Z" fill="#1D1D1F"/>
<path d="M65.8368 12.3429H70.0107V8.2286H65.8368V12.3429Z" fill="#1D1D1F"/>
<path d="M57.4784 64.8961H61.6523V60.7818H57.4784V64.8961Z" fill="#1D1D1F"/>
<path d="M61.6625 64.8961H65.8364V60.7818H61.6625V64.8961Z" fill="#1D1D1F"/>
<path d="M61.6625 60.7714H65.8364V56.6571H61.6625V60.7714Z" fill="#1D1D1F"/>
<path d="M57.4784 60.7714H61.6523V56.6571H57.4784V60.7714Z" fill="#9B0B0B"/>
<path d="M53.3041 60.7714H57.478V56.6571H53.3041V60.7714Z" fill="#9B0B0B"/>
<path d="M57.4784 56.6571H61.6523V52.5428H57.4784V56.6571Z" fill="#9B0B0B"/>
<path d="M65.8368 60.7714H70.0107V56.6571H65.8368V60.7714Z" fill="#1D1D1F"/>
<path d="M65.8368 61.787H70.0107V12.3533H65.8368V61.787Z" fill="#1D1D1F"/>
<path d="M61.6625 56.6571H65.8364V12.3429H61.6625L61.6625 56.6571Z" fill="#9B0B0B"/>
</g>
<defs>
<clipPath id="clip0_2162_20630">
<rect width="70" height="69" fill="white"/>
</clipPath>
</defs>
</svg>
