<svg width="128" height="60" viewBox="0 0 128 60" fill="none" xmlns="http://www.w3.org/2000/svg">
<path d="M126.624 9.99023H1.37646V50.0182H126.624V9.99023Z" fill="white"/>
<path d="M126.624 3.33008H1.37646V56.6699H126.624V3.33008Z" fill="white"/>
<path d="M118 10H9V50H118V10Z" fill="#FF4848"/>
<path d="M118 0H9V3H118V0Z" fill="#1D1D1F"/>
<path d="M9 0H6V3H9V0Z" fill="#1D1D1F"/>
<path d="M9 3H6V7H9V3Z" fill="#1D1D1F"/>
<path d="M6 3H3V7H6V3Z" fill="#1D1D1F"/>
<path d="M118 57H9V60H118V57Z" fill="#1D1D1F"/>
<path d="M9 57H6V60H9V57Z" fill="#1D1D1F"/>
<path d="M9 54H6V57H9V54Z" fill="#1D1D1F"/>
<path d="M6 54H3V57H6V54Z" fill="#1D1D1F"/>
<path d="M12 53L115 53V50L12 50V53Z" fill="#1D1D1F"/>
<path d="M6 47H9V43H6V47Z" fill="#1D1D1F"/>
<path d="M9 47H12V43H9V47Z" fill="#FF9292"/>
<path d="M6 43H9V40H6V43Z" fill="#1D1D1F"/>
<path d="M9 43H12V40H9V43Z" fill="#FF9292"/>
<path d="M6 40H9V37H6V40Z" fill="#1D1D1F"/>
<path d="M9 40H12V37H9V40Z" fill="#FF9292"/>
<path d="M6 37H9V33H6V37Z" fill="#1D1D1F"/>
<path d="M9 37H12V33H9V37Z" fill="#FF9292"/>
<path d="M6 33H9V30H6V33Z" fill="#1D1D1F"/>
<path d="M9 33H12V30H9V33Z" fill="#FF9292"/>
<path d="M6 30H9V27H6V30Z" fill="#1D1D1F"/>
<path d="M9 30H12V27H9V30Z" fill="#FF9292"/>
<path d="M6 27H9V23H6V27Z" fill="#1D1D1F"/>
<path d="M9 27H12V23H9V27Z" fill="#FF9292"/>
<path d="M6 23H9V20H6V23Z" fill="#1D1D1F"/>
<path d="M9 23H12V20H9V23Z" fill="#FF9292"/>
<path d="M6 20H9V17H6V20Z" fill="#1D1D1F"/>
<path d="M9 20H12V17H9V20Z" fill="#FF9292"/>
<path d="M6 17H9V13H6V17Z" fill="#1D1D1F"/>
<path d="M9 17H12V13H9V17Z" fill="#FF9292"/>
<path d="M118 47H121V43H118V47Z" fill="#1D1D1F"/>
<path d="M114.67 50H118V46.67H114.67V50Z" fill="#1D1D1F"/>
<path d="M118 43H121V40H118V43Z" fill="#1D1D1F"/>
<path d="M118 40H121V37H118V40Z" fill="#1D1D1F"/>
<path d="M118 37H121V33H118V37Z" fill="#1D1D1F"/>
<path d="M118 33H121V30H118V33Z" fill="#1D1D1F"/>
<path d="M118 30H121V27H118V30Z" fill="#1D1D1F"/>
<path d="M118 27H121V23H118V27Z" fill="#1D1D1F"/>
<path d="M118 23H121V20H118V23Z" fill="#1D1D1F"/>
<path d="M118 20H121V17H118V20Z" fill="#1D1D1F"/>
<path d="M118 17H121V13H118V17Z" fill="#1D1D1F"/>
<path d="M115 13L118 13V10H115V13Z" fill="#1D1D1F"/>
<path d="M12 10L115 10V7L12 7V10Z" fill="#1D1D1F"/>
<path d="M9 13L115 13V10L9 10V13Z" fill="#FF9292"/>
<path d="M6 51H3V54H6V51Z" fill="#1D1D1F"/>
<path d="M124 10L127 10V6L124 6V10Z" fill="#1D1D1F"/>
<path d="M124 54H127V10H124V54Z" fill="#1D1D1F"/>
<path d="M9 50H12V47H9V50Z" fill="#1D1D1F"/>
<path d="M9 13.33L12 13.33V10H9V13.33Z" fill="#1D1D1F"/>
<path d="M6 7H3V10H6V7Z" fill="#1D1D1F"/>
<path d="M121 51H124V54H121V51Z" fill="#1D1D1F"/>
<path d="M121 54H124V57H121V54Z" fill="#1D1D1F"/>
<path d="M118 54H121V57H118V54Z" fill="#1D1D1F"/>
<path d="M118 57H121V60H118V57Z" fill="#1D1D1F"/>
<path d="M118 0H121V3H118V0Z" fill="#1D1D1F"/>
<path d="M118 3H121V6H118V3Z" fill="#1D1D1F"/>
<path d="M121 3H124V6H121V3Z" fill="#1D1D1F"/>
<path d="M121 6H124V9H121V6Z" fill="#1D1D1F"/>
<path d="M3 9H0V51H3V9Z" fill="#1D1D1F"/>
</svg>
