<svg width="224" height="60" viewBox="0 0 224 60" fill="none" xmlns="http://www.w3.org/2000/svg">
<path d="M221.591 9.99023H2.4082V50.0182H221.591V9.99023Z" fill="white"/>
<path d="M221.591 3.33008H2.4082V56.6699H221.591V3.33008Z" fill="white"/>
<path d="M216 10H10V49H216V10Z" fill="#FF4848"/>
<path d="M215.33 46H218.33V43H215.33V46Z" fill="#1D1D1F"/>
<path d="M215.33 43H218.33V40H215.33V43Z" fill="#1D1D1F"/>
<path d="M215.33 40H218.33V36H215.33V40Z" fill="#1D1D1F"/>
<path d="M215.33 36H218.33V33H215.33V36Z" fill="#1D1D1F"/>
<path d="M215.33 33H218.33V30H215.33V33Z" fill="#1D1D1F"/>
<path d="M215.33 30H218.33V26H215.33V30Z" fill="#1D1D1F"/>
<path d="M215.33 26H218.33V23H215.33V26Z" fill="#1D1D1F"/>
<path d="M215.33 23H218.33V20H215.33V23Z" fill="#1D1D1F"/>
<path d="M215.33 20H218.33V16H215.33V20Z" fill="#1D1D1F"/>
<path d="M215.33 16H218.33V13H215.33V16Z" fill="#1D1D1F"/>
<path d="M212.769 0H5.2251V3.33007H212.769V0Z" fill="#1D1D1F"/>
<path d="M7.2253 0H4.81689V3.33007H7.2253V0Z" fill="#1D1D1F"/>
<path d="M8.14689 3.33008H4.81689V6.66015H8.14689V3.33008Z" fill="#1D1D1F"/>
<path d="M5.7382 3.33008H2.4082V6.66015H5.7382V3.33008Z" fill="#1D1D1F"/>
<path d="M5.7382 6.66016H2.4082V9.99023H5.7382V6.66016Z" fill="#1D1D1F"/>
<path d="M3.33 6.66016H0V9.99023H3.33V6.66016Z" fill="#1D1D1F"/>
<path d="M215 55H8V58.33H215V55Z" fill="#1D1D1F"/>
<path d="M8.33 55H5V58.3301H8.33V55Z" fill="#1D1D1F"/>
<path d="M8.14689 52.3398H4.81689V55.6699H8.14689V52.3398Z" fill="#1D1D1F"/>
<path d="M5.7382 52.3398H2.4082V55.6699H5.7382V52.3398Z" fill="#1D1D1F"/>
<path d="M5.7382 49.0098H2.4082V52.3398H5.7382V49.0098Z" fill="#1D1D1F"/>
<path d="M13 52L213 52V49L13 49V52Z" fill="#1D1D1F"/>
<path d="M7.00008 46.3175H10.3301V42.9874H7.00008V46.3175Z" fill="#1D1D1F"/>
<path d="M10 47H13V43H10V47Z" fill="#FF9292"/>
<path d="M7.00008 42.9874H10.3301V39.6574H7.00008V42.9874Z" fill="#1D1D1F"/>
<path d="M10 43H13V40H10V43Z" fill="#FF9292"/>
<path d="M7.00008 39.6573H10.3301V36.3273H7.00008V39.6573Z" fill="#1D1D1F"/>
<path d="M10 40H13V37H10V40Z" fill="#FF9292"/>
<path d="M7.00008 36.319H10.3301V32.9889H7.00008V36.319Z" fill="#1D1D1F"/>
<path d="M10 37H13V33H10V37Z" fill="#FF9292"/>
<path d="M7.00008 32.9889H10.3301V29.6588H7.00008V32.9889Z" fill="#1D1D1F"/>
<path d="M10 33H13V30H10V33Z" fill="#FF9292"/>
<path d="M7.00008 29.6588H10.3301V26.3287H7.00008V29.6588Z" fill="#1D1D1F"/>
<path d="M10 30H13V27H10V30Z" fill="#FF9292"/>
<path d="M7.00008 26.3287H10.3301V22.9987H7.00008V26.3287Z" fill="#1D1D1F"/>
<path d="M10 27H13V23H10V27Z" fill="#FF9292"/>
<path d="M7.00008 22.9987H10.3301V19.6686H7.00008V22.9987Z" fill="#1D1D1F"/>
<path d="M10 23H13V20H10V23Z" fill="#FF9292"/>
<path d="M7.00008 19.6602H10.3301V16.3301H7.00008V19.6602Z" fill="#1D1D1F"/>
<path d="M10 20H13V17H10V20Z" fill="#FF9292"/>
<path d="M7.00008 16.3301H10.3301V13H7.00008V16.3301Z" fill="#1D1D1F"/>
<path d="M10 17H13V13H10V17Z" fill="#FF9292"/>
<path d="M213 49H216V46H213V49Z" fill="#1D1D1F"/>
<path d="M213 13H216V10H213V13Z" fill="#1D1D1F"/>
<path d="M13 10L213 10V7L13 7V10Z" fill="#1D1D1F"/>
<path d="M12 13L213 13V10L12 10V13Z" fill="#FF9292"/>
<path d="M3.33 50.0098H0V53.3398H3.33V50.0098Z" fill="#1D1D1F"/>
<path d="M3.33 9.99023H0V50.0014H3.33V9.99023Z" fill="#1D1D1F"/>
<path d="M211.847 3.33008L215.177 3.33008V6.67572e-06L211.847 6.67572e-06V3.33008Z" fill="#1D1D1F"/>
<path d="M215 6.33008L218.33 6.33008V3.00001L215 3.00001V6.33008Z" fill="#1D1D1F"/>
<path d="M215 3.33008L218.33 3.33008V6.67572e-06L215 6.67572e-06V3.33008Z" fill="#1D1D1F"/>
<path d="M218 9.33002H221.33V6.00002H218V9.33002Z" fill="#1D1D1F"/>
<path d="M218 6.33002L221.33 6.33002V3.00002L218 3.00002V6.33002Z" fill="#1D1D1F"/>
<path d="M215 58.33H218V55H215V58.33Z" fill="#1D1D1F"/>
<path d="M215 55H218V52H215V55Z" fill="#1D1D1F"/>
<path d="M218 52H221V49H218V52Z" fill="#1D1D1F"/>
<path d="M218 55H221V52H218V55Z" fill="#1D1D1F"/>
<path d="M10 49H13V46H10V49Z" fill="#1D1D1F"/>
<path d="M10 13H13V10H10V13Z" fill="#1D1D1F"/>
<path d="M220.67 6H224V9.33H220.67V6Z" fill="#1D1D1F"/>
<path d="M221 50H224V53H221V50Z" fill="#1D1D1F"/>
<path d="M221 9H224V50H221V9Z" fill="#1D1D1F"/>
</svg>
