<svg width="300" height="60" viewBox="0 0 300 60" fill="none" xmlns="http://www.w3.org/2000/svg">
<g clip-path="url(#clip0_2166_12142)">
<path d="M296.774 9.99023H3.22559V50.0182H296.774V9.99023Z" fill="white"/>
<path d="M296.774 3.33008H3.22559V56.6699H296.774V3.33008Z" fill="white"/>
<path d="M290.315 10.0154H9.67676V50.0098H290.315V10.0154Z" fill="#FF4848"/>
<path d="M290.315 0H9.67676V3.33007H290.315V0Z" fill="#1D1D1F"/>
<path d="M9.67672 0H6.45117V3.33007H9.67672V0Z" fill="#1D1D1F"/>
<path d="M9.67672 3.33008H6.45117V6.66015H9.67672V3.33008Z" fill="#1D1D1F"/>
<path d="M6.45113 3.33008H3.22559V6.66015H6.45113V3.33008Z" fill="#1D1D1F"/>
<path d="M6.45113 6.66016H3.22559V9.99023H6.45113V6.66016Z" fill="#1D1D1F"/>
<path d="M3.22554 6.66016H0V9.99023H3.22554V6.66016Z" fill="#1D1D1F"/>
<path d="M290.315 56.6699H9.67676V60H290.315V56.6699Z" fill="#1D1D1F"/>
<path d="M9.67672 56.6699H6.45117V60H9.67672V56.6699Z" fill="#1D1D1F"/>
<path d="M9.67672 53.3398H6.45117V56.6699H9.67672V53.3398Z" fill="#1D1D1F"/>
<path d="M6.45113 53.3398H3.22559V56.6699H6.45113V53.3398Z" fill="#1D1D1F"/>
<path d="M6.45113 50.0098H3.22559V53.3398H6.45113V50.0098Z" fill="#1D1D1F"/>
<path d="M12.902 53.3315L287.073 53.3315V50.0014L12.902 50.0014V53.3315Z" fill="#1D1D1F"/>
<path d="M6.45121 46.6797H9.67676V43.3496H6.45121V46.6797Z" fill="#1D1D1F"/>
<path d="M9.67729 46.6797H12.9028V43.3496H9.67729V46.6797Z" fill="#FF9292"/>
<path d="M6.45121 43.3496H9.67676V40.0195H6.45121V43.3496Z" fill="#1D1D1F"/>
<path d="M9.67729 43.3496H12.9028V40.0195H9.67729V43.3496Z" fill="#FF9292"/>
<path d="M6.45121 40.0195H9.67676V36.6895H6.45121V40.0195Z" fill="#1D1D1F"/>
<path d="M9.67729 40.0195H12.9028V36.6895H9.67729V40.0195Z" fill="#FF9292"/>
<path d="M6.45121 36.6812H9.67676V33.3511H6.45121V36.6812Z" fill="#1D1D1F"/>
<path d="M9.67729 36.6812H12.9028V33.3511H9.67729V36.6812Z" fill="#FF9292"/>
<path d="M6.45121 33.3511H9.67676V30.021H6.45121V33.3511Z" fill="#1D1D1F"/>
<path d="M9.67729 33.3511H12.9028V30.021H9.67729V33.3511Z" fill="#FF9292"/>
<path d="M6.45121 30.021H9.67676V26.6909H6.45121V30.021Z" fill="#1D1D1F"/>
<path d="M9.67729 30.021H12.9028V26.6909H9.67729V30.021Z" fill="#FF9292"/>
<path d="M6.45121 26.6909H9.67676V23.3608H6.45121V26.6909Z" fill="#1D1D1F"/>
<path d="M9.67729 26.6909H12.9028V23.3608H9.67729V26.6909Z" fill="#FF9292"/>
<path d="M6.45121 23.3608H9.67676V20.0308H6.45121V23.3608Z" fill="#1D1D1F"/>
<path d="M9.67729 23.3608H12.9028V20.0308H9.67729V23.3608Z" fill="#FF9292"/>
<path d="M6.45121 20.0223H9.67676V16.6923H6.45121V20.0223Z" fill="#1D1D1F"/>
<path d="M9.67729 20.0223H12.9028V16.6923H9.67729V20.0223Z" fill="#FF9292"/>
<path d="M6.45121 16.6923H9.67676V13.3622H6.45121V16.6923Z" fill="#1D1D1F"/>
<path d="M9.67729 16.6923H12.9028V13.3622H9.67729V16.6923Z" fill="#FF9292"/>
<path d="M290.315 46.6797H293.541V43.3496H290.315V46.6797Z" fill="#1D1D1F"/>
<path d="M287.09 50.0014H290.315V46.6713H287.09V50.0014Z" fill="#1D1D1F"/>
<path d="M290.315 43.3497H293.541V40.0196H290.315V43.3497Z" fill="#1D1D1F"/>
<path d="M290.315 40.0196H293.541V36.6895H290.315V40.0196Z" fill="#1D1D1F"/>
<path d="M290.315 36.6811H293.541V33.351H290.315V36.6811Z" fill="#1D1D1F"/>
<path d="M290.315 33.351H293.541V30.0209H290.315V33.351Z" fill="#1D1D1F"/>
<path d="M290.315 30.021H293.541V26.6909H290.315V30.021Z" fill="#1D1D1F"/>
<path d="M290.315 26.6909H293.541V23.3608H290.315V26.6909Z" fill="#1D1D1F"/>
<path d="M290.315 23.3608H293.541V20.0308H290.315V23.3608Z" fill="#1D1D1F"/>
<path d="M290.315 20.0223H293.541V16.6923H290.315V20.0223Z" fill="#1D1D1F"/>
<path d="M290.315 16.6923H293.541V13.3623H290.315V16.6923Z" fill="#1D1D1F"/>
<path d="M287.073 13.3455H290.299V10.0154H287.073V13.3455Z" fill="#1D1D1F"/>
<path d="M12.902 9.99023L287.073 9.99023V6.66016L12.902 6.66016V9.99023Z" fill="#1D1D1F"/>
<path d="M12.902 13.3301L287.073 13.3301V10L12.902 10V13.3301Z" fill="#FF9292"/>
<path d="M3.22554 50.0098H0V53.3398H3.22554V50.0098Z" fill="#1D1D1F"/>
<path d="M3.22554 9.99023H0V50.0014H3.22554V9.99023Z" fill="#1D1D1F"/>
<path d="M290.315 3.33008L293.541 3.33008V6.67572e-06L290.315 6.67572e-06V3.33008Z" fill="#1D1D1F"/>
<path d="M290.315 6.66016H293.541V3.33008L290.315 3.33008V6.66016Z" fill="#1D1D1F"/>
<path d="M293.549 6.66016H296.774V3.33008L293.549 3.33008V6.66016Z" fill="#1D1D1F"/>
<path d="M293.549 9.99023H296.774V6.66016H293.549V9.99023Z" fill="#1D1D1F"/>
<path d="M296.774 9.99023H300V6.66016H296.774V9.99023Z" fill="#1D1D1F"/>
<path d="M290.315 60H293.541V56.6699H290.315V60Z" fill="#1D1D1F"/>
<path d="M290.315 56.6699H293.541V53.3399H290.315V56.6699Z" fill="#1D1D1F"/>
<path d="M293.549 56.6699H296.774V53.3399H293.549V56.6699Z" fill="#1D1D1F"/>
<path d="M293.549 53.3315H296.774V50.0014H293.549V53.3315Z" fill="#1D1D1F"/>
<path d="M296.774 53.3315H300V50.0014H296.774V53.3315Z" fill="#1D1D1F"/>
<path d="M296.774 50.0098H300V9.99858H296.774V50.0098Z" fill="#1D1D1F"/>
<path d="M9.68461 50.0182H12.9102V46.6881H9.68461V50.0182Z" fill="#1D1D1F"/>
<path d="M9.70121 13.3455H12.9268V10.0154H9.70121V13.3455Z" fill="#1D1D1F"/>
</g>
<defs>
<clipPath id="clip0_2166_12142">
<rect width="300" height="60" fill="white"/>
</clipPath>
</defs>
</svg>
