<svg width="21" height="20" viewBox="0 0 21 20" fill="none" xmlns="http://www.w3.org/2000/svg">
<circle cx="10.6001" cy="10.5" r="6.5" fill="white"/>
<g clip-path="url(#clip0_2162_20624)">
<path d="M18.4336 7.49999V5.83333H17.6003V4.16666H16.7669V3.33333H15.9336V2.49999H14.2669V1.66666H12.6003V0.833328H7.60026V1.66666H5.93359V2.49999H4.26693V3.33333H3.43359V4.16666H2.60026V5.83333H1.76693V7.49999H0.933594V12.5H1.76693V14.1667H2.60026V15.8333H3.43359V16.6667H4.26693V17.5H5.93359V18.3333H7.60026V19.1667H12.6003V18.3333H14.2669V17.5H15.9336V16.6667H16.7669V15.8333H17.6003V14.1667H18.4336V12.5H19.2669V7.49999H18.4336ZM15.1003 9.99999H14.2669V10.8333H13.4336V11.6667H12.6003V12.5H11.7669V13.3333H10.9336V14.1667H10.1003V15H8.43359V14.1667H7.60026V13.3333H6.76693V12.5H5.93359V11.6667H5.10026V9.99999H5.93359V9.16666H7.60026V9.99999H8.43359V10.8333H10.1003V9.99999H10.9336V9.16666H11.7669V8.33333H12.6003V7.49999H13.4336V6.66666H15.1003V7.49999H15.9336V9.16666H15.1003V9.99999Z" fill="#FF4848"/>
</g>
<defs>
<clipPath id="clip0_2162_20624">
<rect width="20" height="20" fill="white" transform="translate(0.100098)"/>
</clipPath>
</defs>
</svg>
