<svg width="180" height="20" viewBox="0 0 180 20" fill="none" xmlns="http://www.w3.org/2000/svg">
<g clip-path="url(#clip0_4238_8803)">
<path d="M177.893 5.42139H2.10742V14.5789H177.893V5.42139Z" fill="#1D1D1F"/>
<path d="M177.436 14.5728H4.21973V17.1369H177.436V14.5728Z" fill="#1D1D1F"/>
<path d="M173.713 2.85718H6.13672V5.42128H173.713V2.85718Z" fill="#1D1D1F"/>
<path d="M2.1123 12.0087L2.1123 5.42139H0.00492883L0.00492883 12.0087H2.1123Z" fill="#1D1D1F"/>
<path d="M180 14.5789V5.42749H177.893V14.5789H180Z" fill="#1D1D1F"/>
<path d="M6.3271 2.85718H4.21973V5.42128H6.3271V2.85718Z" fill="#1D1D1F"/>
<path d="M4.2148 2.85718H2.10742V5.42128H4.2148V2.85718Z" fill="#1D1D1F"/>
<path d="M4.2148 5.42139H2.10742V7.98549H4.2148V5.42139Z" fill="#1D1D1F"/>
<path d="M173.678 5.42139H175.785V2.85728L173.678 2.85728V5.42139Z" fill="#1D1D1F"/>
<path d="M175.785 5.42139H177.893V2.85728L175.785 2.85728V5.42139Z" fill="#1D1D1F"/>
<path d="M175.785 7.99146H177.893V5.42735H175.785V7.99146Z" fill="#1D1D1F"/>
<path d="M176.237 14.5789H6.15674V17.143H176.237V14.5789Z" fill="#1D1D1F"/>
<path d="M6.3271 14.5728H4.21973V17.1369H6.3271V14.5728Z" fill="#1D1D1F"/>
<path d="M4.2148 14.5728H2.10742V17.1369H4.2148V14.5728Z" fill="#1D1D1F"/>
<path d="M4.2148 12.0024H2.10742V14.5665H4.2148V12.0024Z" fill="#1D1D1F"/>
<path d="M2.10738 12.0024H0V14.5665H2.10738V12.0024Z" fill="#1D1D1F"/>
<path d="M175.785 17.1428H177.893V14.5787H175.785V17.1428Z" fill="#1D1D1F"/>
<path d="M175.785 14.5728H177.893V12.0087H175.785V14.5728Z" fill="#1D1D1F"/>
</g>
<g clip-path="url(#clip1_4238_8803)">
<path d="M4.19617e-05 17.1448L21.9131 17.1448L21.9131 2.85518L4.19617e-05 2.85518L4.19617e-05 17.1448Z" fill="#1D1D1F"/>
<path d="M18.7675 0H3.1377V20H18.7675V0Z" fill="#1D1D1F"/>
</g>
<defs>
<clipPath id="clip0_4238_8803">
<rect width="180" height="14.2857" fill="white" transform="translate(0 2.85718)"/>
</clipPath>
<clipPath id="clip1_4238_8803">
<rect width="21.913" height="20" fill="white"/>
</clipPath>
</defs>
</svg>
